<?xml version="1.0" standalone="no"?><!DOCTYPE svg PUBLIC "-//W3C//DTD SVG 1.1//EN" "http://www.w3.org/Graphics/SVG/1.1/DTD/svg11.dtd"><svg class="icon" width="200px" height="200.00px" viewBox="0 0 1024 1024" version="1.1" xmlns="http://www.w3.org/2000/svg"><path d="M853.333333 219.428571a73.142857 73.142857 0 0 1 73.142857 73.142858v487.619047a73.142857 73.142857 0 0 1-73.142857 73.142857H170.666667a73.142857 73.142857 0 0 1-73.142857-73.142857V292.571429a73.142857 73.142857 0 0 1 73.142857-73.142858h682.666666z m0 73.142858H170.666667v487.619047h682.666666V292.571429z m-341.333333 73.142857a170.666667 170.666667 0 1 1 0 341.333333 170.666667 170.666667 0 0 1 0-341.333333z m0 73.142857a97.52381 97.52381 0 1 0 0 195.047619 97.52381 97.52381 0 0 0 0-195.047619zM853.333333 97.52381v73.142857H512V97.52381h341.333333z" /></svg>