<?xml version="1.0" standalone="no"?><!DOCTYPE svg PUBLIC "-//W3C//DTD SVG 1.1//EN" "http://www.w3.org/Graphics/SVG/1.1/DTD/svg11.dtd"><svg class="icon" width="200px" height="200.00px" viewBox="0 0 1024 1024" version="1.1" xmlns="http://www.w3.org/2000/svg"><path d="M512 469.333333a42.666667 42.666667 0 0 0-42.666667 42.666667v170.666667a42.666667 42.666667 0 0 0 85.333334 0v-170.666667a42.666667 42.666667 0 0 0-42.666667-42.666667z m16.213333-167.253333a42.666667 42.666667 0 0 0-32.426666 0 42.666667 42.666667 0 0 0-14.08 8.96 49.066667 49.066667 0 0 0-8.96 14.08A35.84 35.84 0 0 0 469.333333 341.333333a42.666667 42.666667 0 0 0 12.373334 30.293334 49.066667 49.066667 0 0 0 14.08 8.96A42.666667 42.666667 0 0 0 554.666667 341.333333a44.8 44.8 0 0 0-12.373334-30.293333 42.666667 42.666667 0 0 0-14.08-8.96zM512 85.333333a426.666667 426.666667 0 1 0 426.666667 426.666667A426.666667 426.666667 0 0 0 512 85.333333z m0 768a341.333333 341.333333 0 1 1 341.333333-341.333333 341.333333 341.333333 0 0 1-341.333333 341.333333z" /></svg>