<?xml version="1.0" standalone="no"?><!DOCTYPE svg PUBLIC "-//W3C//DTD SVG 1.1//EN" "http://www.w3.org/Graphics/SVG/1.1/DTD/svg11.dtd"><svg t="1748318774072" class="icon" viewBox="0 0 1024 1024" version="1.1" xmlns="http://www.w3.org/2000/svg" p-id="4299" xmlns:xlink="http://www.w3.org/1999/xlink" width="200" height="200"><path d="M672.726204 734.10351a13.374694 13.374694 0 0 0 1.671837 20.417306 171.655837 171.655837 0 0 1 52.871837 103.026939 55.881143 55.881143 0 1 0 59.726367-70.238041 171.488653 171.488653 0 0 1-95.357388-53.206204 13.374694 13.374694 0 0 0-18.912653 0z" fill="#FB6500" p-id="4300"></path><path d="M899.573551 645.600653c-9.048816 9.027918-14.733061 20.897959-16.049633 33.645714a171.467755 171.467755 0 0 1-53.03902 95.503674 13.374694 13.374694 0 1 0 20.417306 17.073632 171.467755 171.467755 0 0 1 103.026939-52.871836 55.839347 55.839347 0 0 0 16.342204-100.477388 55.881143 55.881143 0 0 0-70.530612 7.126204h-0.167184z" fill="#0082EF" p-id="4301"></path><path d="M742.149224 488.009143a55.860245 55.860245 0 0 0 33.645715 95.02302 171.467755 171.467755 0 0 1 95.503673 53.039021 13.41649 13.41649 0 0 0 22.925061-11.180408 13.395592 13.395592 0 0 0-5.851428-9.236898 171.655837 171.655837 0 0 1-52.871837-103.047837 55.902041 55.902041 0 0 0-93.351184-24.596898z" fill="#2DBC00" p-id="4302"></path><path d="M714.710204 575.320816l-0.982204 1.024a171.300571 171.300571 0 0 1-104.573388 54.710857 55.546776 55.546776 0 0 0-24.743183 93.330286 55.860245 55.860245 0 0 0 95.002122-33.603918 171.634939 171.634939 0 0 1 53.206204-95.54547 13.374694 13.374694 0 0 0-17.888653-19.894857z" fill="#FFCC00" p-id="4303"></path><path d="M377.124571 93.037714c-100.205714 11.034122-191.049143 53.854041-256.292571 120.790204a338.400653 338.400653 0 0 0-62.56849 87.980409 306.489469 306.489469 0 0 0 21.587592 309.498775c17.721469 26.749388 46.832327 60.227918 73.435429 83.988898l-12.037225 94.667755-1.358367 4.033306c-0.334367 1.170286-0.334367 2.507755-0.501551 3.678041l-0.334368 3.009306 0.334368 3.009306a30.448327 30.448327 0 0 0 45.850122 23.593796h0.501551l1.839021-1.337469 28.776489-14.398694 85.827919-43.154286c40.771918 11.702857 83.027592 17.533388 125.450449 17.219919 52.474776 0.125388 104.573388-8.923429 153.913469-26.749388a55.713959 55.713959 0 0 1-37.971592-58.388898 377.897796 377.897796 0 0 1-158.260245 15.715265l-8.526367-1.170286c-19.226122-2.507755-38.243265-6.478367-56.884245-11.87004a38.80751 38.80751 0 0 0-30.448326 3.176489l-2.340572 1.170286-70.593306 41.482449-3.009306 1.839021c-1.671837 1.003102-2.507755 1.337469-3.343673 1.337469a4.848327 4.848327 0 0 1-4.51396-5.01551l2.674939-10.866939 3.17649-11.890939 5.01551-19.56049 5.851429-21.733877a29.612408 29.612408 0 0 0-10.699755-32.97698 308.683755 308.683755 0 0 1-71.262041-74.271347 241.413224 241.413224 0 0 1-17.408-243.920979 278.820571 278.820571 0 0 1 50.196898-70.258939c53.519673-55.212408 128.794122-90.341878 212.114285-99.369796a395.138612 395.138612 0 0 1 86.663837 0c82.797714 9.529469 157.758694 45.16049 210.944 100.038531a274.285714 274.285714 0 0 1 49.695347 70.593306 239.699592 239.699592 0 0 1 24.931265 106.245224c0 3.845224-0.334367 7.690449-0.501551 11.36849a55.693061 55.693061 0 0 1 68.587102 8.024816l2.507756 3.009306a304.796735 304.796735 0 0 0-30.448327-158.594612 341.535347 341.535347 0 0 0-61.899755-87.980408 419.902694 419.902694 0 0 0-255.289469-121.626122 470.580245 470.580245 0 0 0-103.382205-0.334368z" fill="#0082EF" p-id="4304"></path></svg>